<?xml version="1.0" encoding="UTF-8"?>
<svg version="1.1" xmlns="http://www.w3.org/2000/svg" width="512" height="512">
<path d="M0 0 C1.53450793 -0.00417831 3.06901277 -0.00965854 4.60351193 -0.01631981 C8.79919869 -0.03072805 12.99468824 -0.02654422 17.19038558 -0.019153 C21.72356094 -0.01441214 26.2566942 -0.02693929 30.78985596 -0.03717041 C39.66259329 -0.05434584 48.53525976 -0.05520101 57.4080094 -0.04995751 C64.62163438 -0.04591219 71.83523847 -0.04736366 79.04886246 -0.05270576 C80.59028467 -0.0538284 80.59028467 -0.0538284 82.16284672 -0.05497371 C84.25060661 -0.05650523 86.3383665 -0.05804357 88.42612638 -0.05958868 C107.99442155 -0.07330921 127.56267671 -0.06787919 147.13097097 -0.05640347 C165.02161346 -0.04647183 182.91215252 -0.05941136 200.80277906 -0.08333766 C219.18620609 -0.10773721 237.56958495 -0.1173344 255.95302784 -0.11068493 C266.26860062 -0.10719459 276.58409387 -0.10941261 286.89965439 -0.12693596 C295.68112349 -0.14166863 304.46245705 -0.14227942 313.24392353 -0.12486505 C317.72140371 -0.11636144 322.19864185 -0.11418984 326.67610931 -0.1295166 C330.78073443 -0.14339277 334.88491084 -0.13856322 338.98951019 -0.11927737 C340.46855234 -0.11552599 341.94763068 -0.11841431 343.4266405 -0.12888902 C359.32709185 -0.23342725 370.82535548 3.86332431 382.50564575 14.70018005 C391.65427177 24.36665282 395.22956885 35.68451542 395.14332581 48.7726593 C395.15140411 50.26735565 395.15140411 50.26735565 395.15964562 51.79224789 C395.17386401 55.10527435 395.16683651 58.4178978 395.15969849 61.73094177 C395.16540525 64.11686014 395.1723707 66.50277578 395.18049622 68.88868713 C395.19655143 74.68131677 395.19853503 80.47382171 395.19328331 86.26646887 C395.18923052 90.97819036 395.19069829 95.6898799 395.19603157 100.40159988 C395.19677999 101.07396845 395.19752841 101.74633702 395.19829952 102.43908039 C395.1998311 103.80530429 395.20136945 105.17152817 395.20291448 106.53775205 C395.21662089 119.33035867 395.21121505 132.12290403 395.19972927 144.91550924 C395.18979982 156.5983075 395.20273583 168.28094731 395.22666346 179.96372114 C395.25109314 191.98292402 395.26065279 204.00205322 395.25401074 216.02128041 C395.25052696 222.75982276 395.25269461 229.49824334 395.27026176 236.23676682 C395.28576079 242.57507224 395.28174212 248.91307584 395.26295662 255.25136948 C395.25927893 257.57164453 395.26235514 259.89194209 395.27284241 262.21219635 C395.35070477 280.86960972 393.62880221 293.92578147 380.44314575 308.13768005 C369.07701437 318.89491154 356.63336438 320.84264854 341.5112915 320.77536011 C339.97678357 320.77953841 338.44227874 320.78501865 336.90777957 320.79167992 C332.71209282 320.80608815 328.51660327 320.80190433 324.32090592 320.79451311 C319.78773056 320.78977225 315.2545973 320.8022994 310.72143555 320.81253052 C301.84869822 320.82970595 292.97603174 320.83056112 284.10328211 320.82531761 C276.88965712 320.8212723 269.67605304 320.82272377 262.46242905 320.82806587 C260.92100684 320.82918851 260.92100684 320.82918851 259.34844478 320.83033382 C257.26068489 320.83186533 255.17292501 320.83340368 253.08516513 320.83494879 C233.51686996 320.84866932 213.94861479 320.8432393 194.38032053 320.83176357 C176.48967804 320.82183194 158.59913898 320.83477147 140.70851244 320.85869776 C122.32508542 320.88309732 103.94170655 320.89269451 85.55826366 320.88604504 C75.24269088 320.88255469 64.92719763 320.88477271 54.61163712 320.90229607 C45.83016801 320.91702874 37.04883445 320.91763953 28.26736797 320.90022516 C23.7898878 320.89172154 19.31264965 320.88954995 14.83518219 320.90487671 C10.73055707 320.91875288 6.62638066 320.91392333 2.52178131 320.89463747 C1.04273916 320.8908861 -0.43633918 320.89377442 -1.91534899 320.90424912 C-17.81580035 321.00878735 -29.31406398 316.9120358 -40.99435425 306.07518005 C-50.14298026 296.40870728 -53.71827734 285.09084468 -53.6320343 272.00270081 C-53.63741984 271.00623657 -53.64280538 270.00977234 -53.64835411 268.98311222 C-53.6625725 265.67008576 -53.65554501 262.35746231 -53.64840698 259.04441833 C-53.65411375 256.65849997 -53.66107919 254.27258433 -53.66920471 251.88667297 C-53.68525993 246.09404334 -53.68724352 240.3015384 -53.68199181 234.50889124 C-53.67793901 229.79716974 -53.67940679 225.08548021 -53.68474007 220.37376022 C-53.68548849 219.70139165 -53.68623691 219.02902309 -53.68700801 218.33627971 C-53.6885396 216.97005582 -53.69007795 215.60383194 -53.69162298 214.23760806 C-53.70532939 201.44500143 -53.69992354 188.65245608 -53.68843777 175.85985087 C-53.67850831 164.17705261 -53.69144433 152.49441279 -53.71537196 140.81163897 C-53.73980164 128.79243609 -53.74936129 116.77330689 -53.74271923 104.7540797 C-53.73923546 98.01553735 -53.74140311 91.27711676 -53.75897026 84.53859329 C-53.77446929 78.20028787 -53.77045061 71.86228426 -53.75166512 65.52399063 C-53.74798743 63.20371558 -53.75106363 60.88341802 -53.7615509 58.56316376 C-53.83941326 39.90575038 -52.1175107 26.84957864 -38.93185425 12.63768005 C-27.56572286 1.88044856 -15.12207287 -0.06728843 0 0 Z M5.75564575 32.38768005 C8.79051047 36.18126095 11.00885352 38.598488 14.69314575 41.51268005 C15.66123169 42.28869568 16.62931763 43.0647113 17.6267395 43.86424255 C18.39220093 44.47767517 18.39220093 44.47767517 19.17312622 45.10350037 C21.90496626 47.32032829 24.57777165 49.60621879 27.25564575 51.88768005 C31.22424317 55.26101701 35.21583151 58.59945916 39.25564575 61.88768005 C43.86018156 65.63555803 48.39583767 69.4575145 52.91970825 73.30174255 C56.33624115 76.20012828 59.78069413 79.05923106 63.25564575 81.88768005 C67.86018156 85.63555803 72.39583767 89.4575145 76.91970825 93.30174255 C80.33624115 96.20012828 83.78069413 99.05923106 87.25564575 101.88768005 C91.86018156 105.63555803 96.39583767 109.4575145 100.91970825 113.30174255 C104.33624115 116.20012828 107.78069413 119.05923106 111.25564575 121.88768005 C115.86018156 125.63555803 120.39583767 129.4575145 124.91970825 133.30174255 C129.21656268 136.94694133 133.56988626 140.51800047 137.94314575 144.0712738 C140.52019739 146.19376217 143.06000322 148.3519004 145.59255981 150.52684021 C157.16174196 161.69754817 157.16174196 161.69754817 171.64627075 166.67674255 C179.03291768 165.66449835 183.87240916 160.7192144 189.13064575 155.8056488 C192.57505821 152.63289388 196.19920782 149.71616436 199.837677 146.77049255 C203.00981982 144.18012157 206.13607869 141.54085139 209.25564575 138.88768005 C214.10504481 134.76643823 219.00725946 130.71776192 223.94314575 126.70018005 C227.07364241 124.12621613 230.16737036 121.51198919 233.25564575 118.88768005 C238.10523956 114.76666372 243.00725381 110.71776651 247.94314575 106.70018005 C251.07364241 104.12621613 254.16737036 101.51198919 257.25564575 98.88768005 C262.10523956 94.76666372 267.00725381 90.71776651 271.94314575 86.70018005 C275.07364241 84.12621613 278.16737036 81.51198919 281.25564575 78.88768005 C286.10523956 74.76666372 291.00725381 70.71776651 295.94314575 66.70018005 C299.07364241 64.12621613 302.16737036 61.51198919 305.25564575 58.88768005 C309.22472511 55.51489431 313.21581439 52.17591489 317.25564575 48.88768005 C321.5108179 45.41817484 325.73894435 41.91865966 329.94314575 38.38768005 C330.52064575 37.90621521 331.09814575 37.42475037 331.69314575 36.92869568 C333.06656367 35.77081415 334.41395955 34.58218605 335.75564575 33.38768005 C335.75564575 33.05768005 335.75564575 32.72768005 335.75564575 32.38768005 C226.85564575 32.38768005 117.95564575 32.38768005 5.75564575 32.38768005 Z M-21.24435425 54.38768005 C-21.31445028 82.65589519 -21.3673454 110.9240973 -21.39979076 139.19238186 C-21.41525645 152.31797631 -21.43634036 165.44351675 -21.47067261 178.56907654 C-21.50058398 190.00995119 -21.51993142 201.45078671 -21.52661973 212.89169937 C-21.53052901 218.94898164 -21.53971038 225.00615198 -21.56154442 231.06339836 C-21.58193689 236.76703927 -21.5881824 242.47052234 -21.58367729 248.17419624 C-21.58450125 250.26513655 -21.59045034 252.35608224 -21.60197067 254.44699097 C-21.61695787 257.30794168 -21.61328508 260.16830117 -21.6051178 263.02926636 C-21.61385632 263.85127751 -21.62259485 264.67328867 -21.63159817 265.52020925 C-21.58530861 271.54398059 -20.85083281 278.12484994 -16.96939629 282.98369211 C-9.64965814 289.64068234 -0.33418294 288.67557308 8.90014648 288.64837646 C10.35170536 288.65139881 11.80326265 288.65528872 13.25481713 288.65996903 C17.23500768 288.67024703 21.21510813 288.66806772 25.19530606 288.66378844 C29.49124704 288.66132086 33.78716634 288.67033578 38.08309937 288.67782593 C46.49601846 288.69057408 54.90890564 288.69236647 63.32183276 288.69002566 C70.16036084 288.68824247 76.99887924 288.68999219 83.83740616 288.69425011 C84.81078638 288.6948453 85.7841666 288.69544048 86.78704319 288.69605371 C88.76448487 288.69726546 90.74192655 288.6984796 92.71936823 288.69969609 C111.26318516 288.71057209 129.80698389 288.70840885 148.35080184 288.70231124 C165.31246508 288.69714211 182.27407089 288.70839733 199.23572277 288.72740946 C216.65513443 288.74678489 234.07451892 288.75504437 251.49394143 288.75128621 C261.27233592 288.74937371 271.05068153 288.7518665 280.82906723 288.76600075 C289.1535682 288.77791175 297.4779902 288.77932258 305.80249225 288.76721058 C310.04866593 288.76131992 314.29469514 288.76022763 318.54085922 288.77221298 C322.43073238 288.78306495 326.32034032 288.77997669 330.21020104 288.7659513 C331.61458396 288.76330247 333.01898762 288.76567677 334.4233502 288.77368716 C346.56450125 289.04183147 346.56450125 289.04183147 357.3319701 284.11277467 C362.81834976 278.16723115 363.04980421 270.89342619 362.99615479 263.26977539 C362.99786363 262.37358 362.99957248 261.47738461 363.00133312 260.55403179 C363.00461689 257.56303334 362.99364264 254.57226122 362.98269653 251.58128357 C362.98213218 249.43249517 362.98244945 247.28370639 362.98358154 245.13491821 C362.98415511 239.30903839 362.97240006 233.48324101 362.95843363 227.65738034 C362.94592701 221.56617733 362.94475582 215.47497241 362.94238281 209.38375854 C362.93616786 197.8525345 362.91975678 186.32134839 362.89968383 174.79014105 C362.87732536 161.66085049 362.86633153 148.53155812 362.85629296 135.40225327 C362.8353906 108.3973745 362.80021427 81.3925294 362.75564575 54.38768005 C361.48902269 55.33092306 360.22333684 56.27542466 358.95803833 57.22044373 C358.25310745 57.74627548 357.54817657 58.27210724 356.82188416 58.81387329 C353.93985789 61.0090471 351.18757486 63.33692166 348.44314575 65.70018005 C344.41468544 69.1397935 340.3658616 72.54550454 336.25564575 75.88768005 C332.21581439 79.17591489 328.22472511 82.51489431 324.25564575 85.88768005 C319.40605194 90.00869639 314.50403769 94.05759359 309.56814575 98.07518005 C306.43764909 100.64914398 303.34392114 103.26337092 300.25564575 105.88768005 C295.40605194 110.00869639 290.50403769 114.05759359 285.56814575 118.07518005 C282.43764909 120.64914398 279.34392114 123.26337092 276.25564575 125.88768005 C271.40605194 130.00869639 266.50403769 134.05759359 261.56814575 138.07518005 C258.43764909 140.64914398 255.34392114 143.26337092 252.25564575 145.88768005 C247.40605194 150.00869639 242.50403769 154.05759359 237.56814575 158.07518005 C234.43764387 160.64914827 231.34411404 163.26359199 228.25564575 165.88768005 C222.47782842 170.79099404 216.6482277 175.62244417 210.75564575 180.38768005 C209.61883971 181.33028312 208.4821254 182.27299682 207.3454895 183.21580505 C194.97552951 193.35852912 182.20369163 199.88945816 165.75564575 198.38768005 C150.46236328 196.11847729 140.62111726 188.81623976 129.41629028 178.84666443 C127.05936078 176.77594836 124.63167752 174.7987225 122.19314575 172.82518005 C118.17206484 169.55989703 114.20219413 166.24210162 110.25564575 162.88768005 C106.28661032 159.51484417 102.29547554 156.1759136 98.25564575 152.88768005 C93.65110995 149.13980207 89.11545384 145.31784561 84.59158325 141.47361755 C81.17505035 138.57523182 77.73059738 135.71612905 74.25564575 132.88768005 C69.65110995 129.13980207 65.11545384 125.31784561 60.59158325 121.47361755 C57.17505035 118.57523182 53.73059738 115.71612905 50.25564575 112.88768005 C45.65110995 109.13980207 41.11545384 105.31784561 36.59158325 101.47361755 C33.17505035 98.57523182 29.73059738 95.71612905 26.25564575 92.88768005 C21.65110995 89.13980207 17.11545384 85.31784561 12.59158325 81.47361755 C8.30248331 77.83499722 3.95734534 74.26999907 -0.40841675 70.72361755 C-2.50480252 68.9968425 -4.58011726 67.2554293 -6.64279175 65.48924255 C-7.22093628 64.99488708 -7.79908081 64.50053162 -8.39474487 63.99119568 C-9.51339506 63.03217168 -10.62944857 62.07010724 -11.74240112 61.10447693 C-14.76540998 58.51386834 -17.81170958 56.39023704 -21.24435425 54.38768005 Z " fill="#000000" transform="translate(85.24435424804688,95.61231994628906)"/>
</svg>
