<svg version="1.1" id="Layer_1" xmlns="http://www.w3.org/2000/svg" xmlns:xlink="http://www.w3.org/1999/xlink" x="0px" y="0px"
	 width="100%" viewBox="0 0 512 512" enable-background="new 0 0 512 512" xml:space="preserve">
<path fill="#000000" opacity="1.000000" stroke="none" 
	d="
M350.000000,513.000000 
	C233.361679,513.000000 117.223351,513.000000 1.085020,513.000000 
	C1.056679,512.861694 1.003497,512.723450 1.003494,512.585144 
	C0.999986,342.126740 1.000000,171.668335 1.000000,1.104965 
	C171.554993,1.104965 342.110077,1.104965 512.832581,1.104965 
	C512.832581,171.666534 512.832581,342.333252 512.832581,513.000000 
	C458.806549,513.000000 404.653290,513.000000 350.000000,513.000000 
M377.264191,416.777069 
	C447.396118,361.882904 470.405823,270.619843 440.327606,192.485870 
	C400.309357,88.530785 286.263062,37.994545 183.311356,80.576332 
	C108.167236,111.656647 67.219109,170.443420 61.439045,251.569565 
	C57.569244,305.884155 75.808372,353.750061 112.413437,394.210449 
	C134.601578,418.735535 161.570770,436.293854 192.854416,447.121429 
	C202.465576,450.447937 208.294861,446.344360 208.302841,436.376282 
	C208.306992,431.210602 208.208618,426.044952 208.191284,420.879150 
	C208.170380,414.649689 208.186325,408.420074 208.186325,403.136688 
	C198.125793,403.445343 188.775909,404.595093 179.585312,403.830414 
	C161.727905,402.344635 148.138519,393.994446 141.077988,376.663269 
	C136.460083,365.327911 129.545181,355.827515 119.035667,349.012787 
	C116.429939,347.323151 114.984230,343.844513 113.005302,341.188232 
	C116.504257,340.276215 120.133636,338.254364 123.479225,338.647522 
	C136.774231,340.209869 145.486984,348.606567 152.336578,359.481110 
	C163.728531,377.567200 180.426178,383.682922 200.956299,377.721466 
	C206.055984,376.240631 209.109863,374.141022 210.403763,368.171753 
	C211.689331,362.240814 215.651825,356.885406 218.482193,351.298798 
	C218.948425,350.378571 219.629440,349.567139 220.230957,348.676178 
	C213.133179,347.366669 206.388107,346.398193 199.777618,344.853760 
	C174.157913,338.868225 153.131516,326.544495 141.437302,301.693481 
	C136.056641,290.259216 133.592712,278.081543 132.407501,265.592834 
	C130.154694,241.854080 133.963760,219.807816 150.154572,201.105484 
	C151.072845,200.044785 151.417633,197.778015 150.999527,196.380692 
	C147.169174,183.579788 147.228928,170.770050 150.481873,157.913132 
	C153.583954,145.652527 154.763641,144.980972 167.148972,147.720627 
	C180.858566,150.753220 192.781113,157.605728 204.581894,164.842163 
	C206.522598,166.032227 209.564087,166.519836 211.782181,165.997055 
	C235.895035,160.313843 260.172150,158.944489 284.665741,162.787109 
	C291.713989,163.892853 298.990448,167.482529 305.588654,166.408691 
	C312.162750,165.338760 317.961090,159.741837 324.208801,156.329880 
	C327.552521,154.503830 330.992401,152.616638 334.625183,151.607788 
	C341.619293,149.665512 348.761780,148.231567 355.883514,146.787994 
	C358.625366,146.232224 360.253479,147.388794 361.267639,150.398331 
	C366.346741,165.470978 367.587433,180.572525 363.121155,196.041321 
	C362.623962,197.763336 363.431000,200.493576 364.615753,201.965195 
	C371.389038,210.378677 376.360168,219.635620 379.230652,230.062302 
	C383.581909,245.867981 382.636078,261.782898 379.903229,277.617584 
	C374.465851,309.122833 357.339539,331.192047 326.388153,341.097443 
	C315.738068,344.505768 304.619995,346.451813 293.546265,349.106537 
	C304.343262,360.384155 306.101990,374.852905 305.933960,389.956329 
	C305.765228,405.119263 305.788361,420.284424 305.738251,435.448639 
	C305.701569,446.551361 311.292175,450.615173 321.693451,446.990601 
	C341.638062,440.040436 359.974152,430.111603 377.264191,416.777069 
M169.172745,385.161377 
	C169.890778,385.518280 170.640686,386.223236 171.320328,386.161041 
	C172.825165,386.023224 174.338013,385.600494 175.722809,385.004150 
	C175.892029,384.931274 175.560837,382.397034 175.007980,382.184753 
	C173.182953,381.483948 171.149826,381.325073 169.196579,380.958130 
	C169.011673,382.186707 168.826782,383.415314 169.172745,385.161377 
M191.271408,384.254852 
	C189.584885,383.915649 187.858215,383.207275 186.227890,383.384644 
	C185.341995,383.481018 183.994431,385.088379 184.001526,386.005310 
	C184.008499,386.905945 185.342514,388.372742 186.311401,388.581146 
	C189.195831,389.201538 192.014679,389.079529 191.271408,384.254852 
M160.164780,373.235596 
	C158.530090,373.080383 156.895386,372.925171 155.260681,372.769958 
	C155.551788,374.287384 155.348343,376.338196 156.261444,377.184814 
	C157.358688,378.202148 159.406433,378.194366 161.042648,378.630432 
	C160.937225,377.016510 160.831787,375.402618 160.164780,373.235596 
M198.957260,385.347076 
	C201.599335,388.115784 204.221680,387.503601 206.452347,384.966614 
	C206.875412,384.485443 206.326416,382.213257 205.658554,381.869385 
	C202.558029,380.272980 200.020035,380.954773 198.957260,385.347076 
M146.945068,360.942932 
	C144.220306,363.676331 145.850128,365.707184 148.248489,367.209930 
	C148.923584,367.632904 150.391510,366.790558 151.495773,366.528595 
	C150.549011,364.681946 149.621338,362.824860 148.624832,361.005463 
	C148.529068,360.830627 148.005173,360.890320 146.945068,360.942932 
M143.728607,354.373260 
	C142.062103,353.299683 140.395584,352.226105 138.729065,351.152557 
	C138.704315,352.318542 138.215363,353.797485 138.748077,354.587646 
	C139.991089,356.431396 141.723480,357.964478 143.728607,354.373260 
z"/>
<path fill="#FEFEFE" opacity="1.000000" stroke="none" 
	d="
M376.966888,416.971252 
	C359.974152,430.111603 341.638062,440.040436 321.693451,446.990601 
	C311.292175,450.615173 305.701569,446.551361 305.738251,435.448639 
	C305.788361,420.284424 305.765228,405.119263 305.933960,389.956329 
	C306.101990,374.852905 304.343262,360.384155 293.546265,349.106537 
	C304.619995,346.451813 315.738068,344.505768 326.388153,341.097443 
	C357.339539,331.192047 374.465851,309.122833 379.903229,277.617584 
	C382.636078,261.782898 383.581909,245.867981 379.230652,230.062302 
	C376.360168,219.635620 371.389038,210.378677 364.615753,201.965195 
	C363.431000,200.493576 362.623962,197.763336 363.121155,196.041321 
	C367.587433,180.572525 366.346741,165.470978 361.267639,150.398331 
	C360.253479,147.388794 358.625366,146.232224 355.883514,146.787994 
	C348.761780,148.231567 341.619293,149.665512 334.625183,151.607788 
	C330.992401,152.616638 327.552521,154.503830 324.208801,156.329880 
	C317.961090,159.741837 312.162750,165.338760 305.588654,166.408691 
	C298.990448,167.482529 291.713989,163.892853 284.665741,162.787109 
	C260.172150,158.944489 235.895035,160.313843 211.782181,165.997055 
	C209.564087,166.519836 206.522598,166.032227 204.581894,164.842163 
	C192.781113,157.605728 180.858566,150.753220 167.148972,147.720627 
	C154.763641,144.980972 153.583954,145.652527 150.481873,157.913132 
	C147.228928,170.770050 147.169174,183.579788 150.999527,196.380692 
	C151.417633,197.778015 151.072845,200.044785 150.154572,201.105484 
	C133.963760,219.807816 130.154694,241.854080 132.407501,265.592834 
	C133.592712,278.081543 136.056641,290.259216 141.437302,301.693481 
	C153.131516,326.544495 174.157913,338.868225 199.777618,344.853760 
	C206.388107,346.398193 213.133179,347.366669 220.230957,348.676178 
	C219.629440,349.567139 218.948425,350.378571 218.482193,351.298798 
	C215.651825,356.885406 211.689331,362.240814 210.403763,368.171753 
	C209.109863,374.141022 206.055984,376.240631 200.956299,377.721466 
	C180.426178,383.682922 163.728531,377.567200 152.336578,359.481110 
	C145.486984,348.606567 136.774231,340.209869 123.479225,338.647522 
	C120.133636,338.254364 116.504257,340.276215 113.005295,341.188232 
	C114.984230,343.844513 116.429939,347.323151 119.035667,349.012787 
	C129.545181,355.827515 136.460083,365.327911 141.077988,376.663269 
	C148.138519,393.994446 161.727905,402.344635 179.585312,403.830414 
	C188.775909,404.595093 198.125793,403.445343 208.186325,403.136688 
	C208.186325,408.420074 208.170380,414.649689 208.191284,420.879150 
	C208.208618,426.044952 208.306992,431.210602 208.302841,436.376282 
	C208.294861,446.344360 202.465576,450.447937 192.854416,447.121429 
	C161.570770,436.293854 134.601578,418.735535 112.413437,394.210449 
	C75.808372,353.750061 57.569244,305.884155 61.439045,251.569565 
	C67.219109,170.443420 108.167236,111.656647 183.311356,80.576332 
	C286.263062,37.994545 400.309357,88.530785 440.327606,192.485870 
	C470.405823,270.619843 447.396118,361.882904 376.966888,416.971252 
z"/>
<path fill="#F0F0F0" opacity="1.000000" stroke="none" 
	d="
M168.907318,384.902649 
	C168.826782,383.415314 169.011673,382.186707 169.196579,380.958130 
	C171.149826,381.325073 173.182953,381.483948 175.007980,382.184753 
	C175.560837,382.397034 175.892029,384.931274 175.722809,385.004150 
	C174.338013,385.600494 172.825165,386.023224 171.320328,386.161041 
	C170.640686,386.223236 169.890778,385.518280 168.907318,384.902649 
z"/>
<path fill="#EBEBEB" opacity="1.000000" stroke="none" 
	d="
M191.522491,384.549957 
	C192.014679,389.079529 189.195831,389.201538 186.311401,388.581146 
	C185.342514,388.372742 184.008499,386.905945 184.001526,386.005310 
	C183.994431,385.088379 185.341995,383.481018 186.227890,383.384644 
	C187.858215,383.207275 189.584885,383.915649 191.522491,384.549957 
z"/>
<path fill="#F0F0F0" opacity="1.000000" stroke="none" 
	d="
M160.445557,373.512146 
	C160.831787,375.402618 160.937225,377.016510 161.042648,378.630432 
	C159.406433,378.194366 157.358688,378.202148 156.261444,377.184814 
	C155.348343,376.338196 155.551788,374.287384 155.260681,372.769958 
	C156.895386,372.925171 158.530090,373.080383 160.445557,373.512146 
z"/>
<path fill="#EDEDED" opacity="1.000000" stroke="none" 
	d="
M198.871460,384.950256 
	C200.020035,380.954773 202.558029,380.272980 205.658554,381.869385 
	C206.326416,382.213257 206.875412,384.485443 206.452347,384.966614 
	C204.221680,387.503601 201.599335,388.115784 198.871460,384.950256 
z"/>
<path fill="#E2E2E2" opacity="1.000000" stroke="none" 
	d="
M147.312546,360.892029 
	C148.005173,360.890320 148.529068,360.830627 148.624832,361.005463 
	C149.621338,362.824860 150.549011,364.681946 151.495773,366.528595 
	C150.391510,366.790558 148.923584,367.632904 148.248489,367.209930 
	C145.850128,365.707184 144.220306,363.676331 147.312546,360.892029 
z"/>
<path fill="#E3E3E3" opacity="1.000000" stroke="none" 
	d="
M143.688797,354.726990 
	C141.723480,357.964478 139.991089,356.431396 138.748077,354.587646 
	C138.215363,353.797485 138.704315,352.318542 138.729065,351.152557 
	C140.395584,352.226105 142.062103,353.299683 143.688797,354.726990 
z"/>
</svg>